<svg xmlns="http://www.w3.org/2000/svg" viewBox="0 0 32 32">
  <defs>
    <linearGradient id="grad" x1="0%" y1="0%" x2="100%" y2="100%">
      <stop offset="0%" style="stop-color:#f97316;stop-opacity:1" />
      <stop offset="100%" style="stop-color:#ec4899;stop-opacity:1" />
    </linearGradient>
  </defs>
  <path d="M4 12 C4 8 8 6 16 6 C24 6 28 8 28 12 C28 18 24 22 16 22 C8 22 4 18 4 12Z" fill="url(#grad)"/>
  <ellipse cx="10" cy="13" rx="3" ry="4" fill="#1a1a2e"/>
  <ellipse cx="22" cy="13" rx="3" ry="4" fill="#1a1a2e"/>
  <circle cx="16" cy="7" r="2" fill="#fbbf24"/>
  <circle cx="11" cy="8" r="1.5" fill="#a855f7"/>
  <circle cx="21" cy="8" r="1.5" fill="#06b6d4"/>
  <path d="M6 8 Q4 4 6 2" stroke="#a855f7" stroke-width="2" fill="none" stroke-linecap="round"/>
  <path d="M26 8 Q28 4 26 2" stroke="#06b6d4" stroke-width="2" fill="none" stroke-linecap="round"/>
  <path d="M16 6 Q16 2 18 1" stroke="#fbbf24" stroke-width="2" fill="none" stroke-linecap="round"/>
</svg>
